<svg xmlns="http://www.w3.org/2000/svg" viewBox="0 0 311 268">
    <defs>

        <style>.cls-5{fill:#00AEEF;}.cls-6{fill:#00AEEF;}.cls-4{fill:#00AEEF;}</style>

    </defs>
    <title>Artboard 3</title>
    <g id="table">
        <path class="cls-5"
              d="M308.5,143H2.5A2.5,2.5,0,0,1,0,140.5V2.5A2.5,2.5,0,0,1,2.5,0h306A2.5,2.5,0,0,1,311,2.5v138A2.5,2.5,0,0,1,308.5,143Z"/>
    </g>
    <g id="all">
        <rect class="cls-6" x="200.82" y="11.6" width="34.36" height="50.95" rx="1.73" ry="1.73"
              transform="translate(159.63 250.36) rotate(-84.35)"/>
        <rect class="cls-6" x="67.53" y="19.89" width="50.95" height="34.36" rx="1.73" ry="1.73"
              transform="translate(-3.2 9.34) rotate(-5.65)"/>
        <path class="cls-4"
              d="M149.77,34.42A2.5,2.5,0,0,0,147,32.18L103.9,36.45,102.7,24.39a1.47,1.47,0,0,0-1.61-1.32L82.82,24.88a1.47,1.47,0,0,0-1.32,1.61l1.19,12.05L39.56,42.82a2.5,2.5,0,0,0-2.24,2.73l.59,6a2.5,2.5,0,0,0,2.73,2.24L148.12,43.12a2.5,2.5,0,0,0,2.24-2.73Z"/>
        <path class="cls-4"
              d="M271.44,42.82l-43.13-4.27,1.19-12.05a1.47,1.47,0,0,0-1.32-1.61l-18.27-1.81a1.47,1.47,0,0,0-1.61,1.32L207.1,36.45,164,32.18a2.5,2.5,0,0,0-2.73,2.24l-.59,6a2.5,2.5,0,0,0,2.24,2.73L270.36,53.76a2.5,2.5,0,0,0,2.73-2.24l.59-6A2.5,2.5,0,0,0,271.44,42.82Z"/>
        <rect class="cls-4" x="90.94" y="87.4" width="74.4" height="26.91" rx="2.66" ry="2.66"/>
        <rect class="cls-6" x="92.85" y="89.77" width="4.46" height="4.46" rx="0.64" ry="0.64"/>
        <rect class="cls-6" x="98.41" y="89.77" width="4.46" height="4.46" rx="0.64" ry="0.64"/>
        <rect class="cls-6" x="103.97" y="89.77" width="4.46" height="4.46" rx="0.64" ry="0.64"/>
        <rect class="cls-6" x="109.54" y="89.77" width="4.46" height="4.46" rx="0.64" ry="0.64"/>
        <rect class="cls-6" x="115.1" y="89.77" width="4.46" height="4.46" rx="0.64" ry="0.64"/>
        <rect class="cls-6" x="120.66" y="89.77" width="4.46" height="4.46" rx="0.64" ry="0.64"/>
        <rect class="cls-6" x="126.22" y="89.77" width="4.46" height="4.46" rx="0.64" ry="0.64"/>
        <rect class="cls-6" x="131.79" y="89.77" width="4.46" height="4.46" rx="0.64" ry="0.64"/>
        <rect class="cls-6" x="137.35" y="89.77" width="4.46" height="4.46" rx="0.64" ry="0.64"/>
        <rect class="cls-6" x="142.91" y="89.77" width="4.46" height="4.46" rx="0.64" ry="0.64"/>
        <rect class="cls-6" x="148.47" y="89.77" width="4.46" height="4.46" rx="0.64" ry="0.64"/>
        <rect class="cls-6" x="154.04" y="89.77" width="4.46" height="4.46" rx="0.64" ry="0.64"/>
        <rect class="cls-6" x="95.31" y="95.81" width="4.46" height="4.46" rx="0.64" ry="0.64"/>
        <rect class="cls-6" x="100.87" y="95.81" width="4.46" height="4.46" rx="0.64" ry="0.64"/>
        <rect class="cls-6" x="106.44" y="95.81" width="4.46" height="4.46" rx="0.64" ry="0.64"/>
        <rect class="cls-6" x="112" y="95.81" width="4.46" height="4.46" rx="0.64" ry="0.64"/>
        <rect class="cls-6" x="117.56" y="95.81" width="4.46" height="4.46" rx="0.64" ry="0.64"/>
        <rect class="cls-6" x="123.12" y="95.81" width="4.46" height="4.46" rx="0.64" ry="0.64"/>
        <rect class="cls-6" x="128.69" y="95.81" width="4.46" height="4.46" rx="0.64" ry="0.64"/>
        <rect class="cls-6" x="134.25" y="95.81" width="4.46" height="4.46" rx="0.64" ry="0.64"/>
        <rect class="cls-6" x="139.81" y="95.81" width="4.46" height="4.46" rx="0.64" ry="0.64"/>
        <rect class="cls-6" x="145.37" y="95.81" width="4.46" height="4.46" rx="0.64" ry="0.64"/>
        <rect class="cls-6" x="150.94" y="95.81" width="4.46" height="4.46" rx="0.64" ry="0.64"/>
        <rect class="cls-6" x="98.09" y="101.85" width="4.46" height="4.46" rx="0.64" ry="0.64"/>
        <rect class="cls-6" x="103.65" y="101.85" width="4.46" height="4.46" rx="0.64" ry="0.64"/>
        <rect class="cls-6" x="109.22" y="101.85" width="4.46" height="4.46" rx="0.64" ry="0.64"/>
        <rect class="cls-6" x="114.78" y="101.85" width="4.46" height="4.46" rx="0.64" ry="0.64"/>
        <rect class="cls-6" x="120.34" y="101.85" width="4.46" height="4.46" rx="0.64" ry="0.64"/>
        <rect class="cls-6" x="125.9" y="101.85" width="4.46" height="4.46" rx="0.64" ry="0.64"/>
        <rect class="cls-6" x="131.47" y="101.85" width="4.46" height="4.46" rx="0.64" ry="0.64"/>
        <rect class="cls-6" x="137.03" y="101.85" width="4.46" height="4.46" rx="0.64" ry="0.64"/>
        <rect class="cls-6" x="142.59" y="101.85" width="4.46" height="4.46" rx="0.64" ry="0.64"/>
        <rect class="cls-6" x="148.15" y="101.85" width="4.46" height="4.46" rx="0.64" ry="0.64"/>
        <rect class="cls-6" x="153.72" y="101.85" width="4.46" height="4.46" rx="0.64" ry="0.64"/>
        <rect class="cls-6" x="98.09" y="107.9" width="4.46" height="4.46" rx="0.64" ry="0.64"/>
        <rect class="cls-6" x="103.65" y="107.9" width="4.46" height="4.46" rx="0.64" ry="0.64"/>
        <rect class="cls-6" x="142.59" y="107.9" width="4.46" height="4.46" rx="0.64" ry="0.64"/>
        <rect class="cls-6" x="109.22" y="107.9" width="32.27" height="4.46" rx="1" ry="1"/>
        <rect class="cls-6" x="148.15" y="107.9" width="4.46" height="4.46" rx="0.64" ry="0.64"/>
        <rect class="cls-6" x="153.72" y="107.9" width="4.46" height="4.46" rx="0.64" ry="0.64"/>
        <rect class="cls-6" x="188.34" y="82.86" width="12.78" height="22.73" rx="6.39" ry="6.39"/>
        <rect class="cls-4" x="193.69" y="85.24" width="2.09" height="3.72" rx="1.05" ry="1.05"/>
        <path class="cls-6"
              d="M208.08,155.49a6.5,6.5,0,0,0-12,5c3.36,8,4.79,20,3.95,30.67-1,.18-2.09.36-3.22.53-.14-2.76-.23-5.64-.23-8.54,0-2.41.06-4.83.15-7.19a19.24,19.24,0,0,0-20.11-20c-6.56.31-14,.54-21.38.54-6.92,0-13.81-.22-20-.5a19.27,19.27,0,0,0-20.13,20c.08,2.12.13,4.29.13,6.46,0,3.1-.1,6.19-.25,9.13q-2.15-.31-4-.62c-1-10.83.43-23.26,3.88-31.51a6.5,6.5,0,0,0-12-5c-5.41,13-6.79,32.41-3.33,47.31a6.5,6.5,0,0,0,12.76-.54c.94.49,1.92,1,3,1.58a11.84,11.84,0,0,0,11.14,7.82h1.8c3.1,2.13,6,4.42,8.64,6.57l-17.37,6.16h-2.24a3.24,3.24,0,0,0-3.24,3.24v7a3.24,3.24,0,0,0,3.24,3.24h3.77a3.24,3.24,0,0,0,3.24-3.24v-5.61l17.81-6.32c2.77,2.51,4.48,4.24,4.52,4.29l.22.21a14.56,14.56,0,0,0,6.32,3v20.2a3.23,3.23,0,0,0-2.12,3v7a3.24,3.24,0,0,0,3.24,3.24h3.77a3.24,3.24,0,0,0,3.24-3.24v-7a3.23,3.23,0,0,0-2.13-3V229.3a14.56,14.56,0,0,0,6.36-3l.24-.22s1.82-1.87,4.67-4.47l18.1,6.1v6a3.24,3.24,0,0,0,3.24,3.24h3.77a3.24,3.24,0,0,0,3.24-3.24v-7a3.24,3.24,0,0,0-3.24-3.24h-.84l-19-6.41c2.53-2.09,5.39-4.3,8.39-6.33h1.32a11.85,11.85,0,0,0,11-7.51l2.19-1.22a6.5,6.5,0,0,0,12.8.87C214.87,187.91,213.49,168.45,208.08,155.49Z"/>
        <path class="cls-4"
              d="M308.5,143H2.5A2.5,2.5,0,0,1,0,140.5V2.5A2.5,2.5,0,0,1,2.5,0h306A2.5,2.5,0,0,1,311,2.5v138A2.5,2.5,0,0,1,308.5,143ZM5,138H306V5H5Z"/>
    </g>
</svg>